<svg xmlns="http://www.w3.org/2000/svg" xmlns:xlink="http://www.w3.org/1999/xlink" width="500" zoomAndPan="magnify" viewBox="0 0 375 374.999991" height="500" preserveAspectRatio="xMidYMid meet" version="1.0"><path fill="rgb(38.42926%, 88.238525%, 91.369629%)" d="M 252.175781 180.679688 L 261.160156 180.679688 C 261.160156 140.980469 228.972656 108.792969 189.273438 108.792969 L 189.273438 117.777344 C 223.949219 117.777344 252.175781 145.992188 252.175781 180.679688 Z M 252.175781 180.679688 " fill-opacity="1" fill-rule="nonzero"/><path fill="rgb(38.42926%, 88.238525%, 91.369629%)" d="M 189.273438 135.75 L 189.273438 144.734375 C 209.085938 144.734375 225.21875 160.867188 225.21875 180.679688 L 234.203125 180.679688 C 234.203125 155.90625 214.046875 135.75 189.273438 135.75 Z M 189.273438 135.75 " fill-opacity="1" fill-rule="nonzero"/><path fill="rgb(38.42926%, 88.238525%, 91.369629%)" d="M 189.273438 162.707031 L 189.273438 171.695312 C 194.226562 171.695312 198.257812 175.726562 198.257812 180.679688 L 207.246094 180.679688 C 207.246094 170.769531 199.195312 162.707031 189.273438 162.707031 Z M 189.273438 162.707031 " fill-opacity="1" fill-rule="nonzero"/><path fill="rgb(38.42926%, 88.238525%, 91.369629%)" d="M 149.457031 220.496094 C 149.457031 220.496094 219.347656 290.378906 244.761719 264.964844 C 252.210938 257.515625 244.753906 264.976562 257.46875 252.261719 C 263.820312 245.90625 270.171875 239.554688 263.820312 233.203125 C 260.523438 229.902344 244.769531 214.140625 238.410156 207.78125 C 232.054688 201.425781 225.703125 207.78125 219.347656 214.132812 C 212.996094 220.496094 212.996094 220.496094 212.996094 220.496094 C 212.996094 220.496094 193.929688 226.847656 168.515625 201.425781 C 143.09375 176.015625 149.457031 156.949219 149.457031 156.949219 C 149.457031 156.949219 149.457031 156.949219 155.808594 150.605469 C 162.164062 144.25 168.515625 137.898438 162.164062 131.535156 C 155.800781 125.183594 140.050781 109.421875 136.742188 106.125 C 130.390625 99.769531 124.035156 106.125 117.683594 112.484375 C 104.976562 125.191406 112.4375 117.734375 104.976562 125.183594 C 79.566406 150.605469 149.457031 220.496094 149.457031 220.496094 Z M 149.457031 220.496094 " fill-opacity="1" fill-rule="nonzero"/></svg>