<svg xmlns="http://www.w3.org/2000/svg" xmlns:xlink="http://www.w3.org/1999/xlink" width="500" zoomAndPan="magnify" viewBox="0 0 375 374.999991" height="500" preserveAspectRatio="xMidYMid meet" version="1.0"><path fill="rgb(38.42926%, 88.238525%, 91.369629%)" d="M 260.4375 259.320312 L 213.386719 212.265625 C 233.089844 185.808594 231.015625 148.140625 207.011719 124.136719 C 180.648438 97.773438 137.753906 97.773438 111.386719 124.136719 C 85.023438 150.503906 85.023438 193.398438 111.386719 219.761719 C 135.390625 243.765625 173.058594 245.839844 199.515625 226.136719 L 246.570312 273.1875 C 250.398438 277.015625 256.605469 277.015625 260.4375 273.1875 C 264.269531 269.355469 264.269531 263.148438 260.4375 259.320312 Z M 120.632812 210.519531 C 99.367188 189.253906 99.367188 154.648438 120.632812 133.382812 C 141.898438 112.117188 176.503906 112.117188 197.769531 133.382812 C 219.035156 154.648438 219.035156 189.253906 197.769531 210.519531 C 176.503906 231.785156 141.898438 231.78125 120.632812 210.519531 Z M 120.632812 210.519531 " fill-opacity="1" fill-rule="nonzero"/><path fill="rgb(38.42926%, 88.238525%, 91.369629%)" d="M 117.167969 176.519531 C 114.953125 176.519531 113.160156 174.722656 113.160156 172.511719 C 113.160156 147.421875 133.570312 127.011719 158.660156 127.011719 C 160.875 127.011719 162.667969 128.804688 162.667969 131.019531 C 162.667969 133.230469 160.875 135.023438 158.660156 135.023438 C 137.988281 135.023438 121.171875 151.839844 121.171875 172.511719 C 121.171875 174.722656 119.378906 176.519531 117.167969 176.519531 Z M 117.167969 176.519531 " fill-opacity="1" fill-rule="nonzero"/></svg>