<svg xmlns="http://www.w3.org/2000/svg" xmlns:xlink="http://www.w3.org/1999/xlink" width="500" zoomAndPan="magnify" viewBox="0 0 375 374.999991" height="500" preserveAspectRatio="xMidYMid meet" version="1.0"><defs><clipPath id="id1"><path d="M 37.5 37.5 L 337.5 37.5 L 337.5 337.5 L 37.5 337.5 Z M 37.5 37.5 " clip-rule="nonzero"/></clipPath></defs><g clip-path="url(#id1)"><path fill="rgb(38.42926%, 88.238525%, 91.369629%)" d="M 119.535156 337.5 L 37.5 289.898438 L 37.5 124.832031 L 187.453125 37.5 L 337.5 122.585938 L 337.5 289.832031 L 265.425781 336.421875 L 95.746094 137.441406 L 224.085938 135.671875 C 237.945312 135.488281 251.007812 140.464844 260.773438 149.707031 C 270.539062 158.945312 275.707031 171.191406 275.332031 184.171875 L 275.292969 185.566406 C 274.578125 210.265625 254.148438 229.988281 227.753906 231.441406 L 226.925781 218.3125 C 245.964844 217.265625 260.71875 203.035156 261.234375 185.207031 L 261.273438 183.8125 C 261.546875 174.445312 257.8125 165.605469 250.765625 158.941406 C 243.71875 152.273438 234.292969 148.648438 224.292969 148.8125 L 124.558594 150.1875 L 266.386719 316.933594 L 323.433594 282.648438 L 323.433594 129.980469 L 187.546875 52.933594 L 51.558594 132.125 L 51.558594 282.578125 L 105.464844 313.859375 L 105.464844 217.539062 L 119.527344 231.464844 L 119.527344 337.5 Z M 119.535156 337.5 " fill-opacity="1" fill-rule="nonzero"/></g></svg>