<svg xmlns="http://www.w3.org/2000/svg" xmlns:xlink="http://www.w3.org/1999/xlink" width="500" zoomAndPan="magnify" viewBox="0 0 375 374.999991" height="500" preserveAspectRatio="xMidYMid meet" version="1.0"><defs><clipPath id="id1"><path d="M 161.171875 90.992188 L 353.921875 90.992188 L 353.921875 283.742188 L 161.171875 283.742188 Z M 161.171875 90.992188 " clip-rule="nonzero"/></clipPath><clipPath id="id2"><path d="M 115 175 L 129.128906 175 L 129.128906 241.449219 L 115 241.449219 Z M 115 175 " clip-rule="nonzero"/></clipPath><clipPath id="id3"><path d="M 116 155.949219 L 129.128906 155.949219 L 129.128906 241.449219 L 116 241.449219 Z M 116 155.949219 " clip-rule="nonzero"/></clipPath><clipPath id="id4"><path d="M 19.628906 195 L 102 195 L 102 205 L 19.628906 205 Z M 19.628906 195 " clip-rule="nonzero"/></clipPath></defs><g clip-path="url(#id1)"><path fill="rgb(38.42926%, 88.238525%, 91.369629%)" d="M 213.878906 283.742188 L 161.171875 253.160156 L 161.171875 147.105469 L 257.515625 90.992188 L 353.921875 145.664062 L 353.921875 253.117188 L 307.613281 283.050781 L 198.59375 155.207031 L 281.054688 154.070312 C 289.957031 153.949219 298.347656 157.148438 304.625 163.085938 C 310.898438 169.023438 314.21875 176.890625 313.980469 185.230469 L 313.953125 186.125 C 313.496094 201.996094 300.367188 214.667969 283.410156 215.601562 L 282.878906 207.167969 C 295.109375 206.496094 304.589844 197.347656 304.917969 185.894531 L 304.945312 185 C 305.121094 178.980469 302.722656 173.300781 298.195312 169.019531 C 293.667969 164.734375 287.609375 162.40625 281.1875 162.511719 L 217.105469 163.394531 L 308.230469 270.53125 L 344.882812 248.5 L 344.882812 150.414062 L 257.574219 100.910156 L 170.203125 151.792969 L 170.203125 248.457031 L 204.839844 268.554688 L 204.839844 206.667969 L 213.875 215.617188 L 213.875 283.742188 Z M 213.878906 283.742188 " fill-opacity="1" fill-rule="nonzero"/></g><g clip-path="url(#id2)"><path fill="rgb(38.42926%, 88.238525%, 91.369629%)" d="M 119.15625 254.945312 C 134.0625 258.84375 151.261719 259.304688 166.167969 254.714844 C 170.984375 253.339844 170.066406 244.164062 170.527344 240.265625 C 171.441406 232.464844 172.132812 224.667969 173.277344 216.867188 C 173.964844 211.820312 176.945312 207.921875 180.386719 204.25 C 184.285156 200.121094 188.183594 195.765625 191.394531 190.945312 C 193.6875 187.964844 199.652344 182 196.898438 177.871094 C 195.753906 176.035156 193.230469 175.347656 191.164062 176.265625 C 178.09375 182 164.5625 186.128906 151.722656 192.324219 C 146.445312 194.847656 150.34375 203.105469 155.847656 200.351562 C 161.8125 197.597656 171.902344 193.46875 180.617188 190.027344 C 177.40625 194.15625 173.507812 197.597656 170.066406 201.726562 C 163.417969 209.757812 163.1875 221.914062 162.039062 231.777344 C 161.8125 233.152344 161.125 246.457031 160.433594 246.457031 C 154.242188 247.835938 138.648438 250.128906 121.21875 245.769531 C 118.699219 245.082031 116.175781 246.6875 115.714844 248.980469 C 115.027344 251.734375 116.632812 254.257812 119.15625 254.945312 Z M 119.15625 254.945312 " fill-opacity="1" fill-rule="nonzero"/></g><g clip-path="url(#id3)"><path fill="rgb(38.42926%, 88.238525%, 91.369629%)" d="M 267.761719 201.5 C 273.496094 201.5 297.574219 192.78125 302.390625 190.945312 C 306.746094 189.339844 310.1875 186.128906 311.792969 182 C 313.628906 177.871094 313.398438 173.054688 311.5625 168.925781 C 308.125 161.585938 299.636719 157.6875 291.839844 159.980469 C 279.6875 163.648438 262.714844 166.859375 260.421875 167.089844 C 254.691406 166.859375 206.070312 154.015625 195.523438 150.804688 C 190.019531 149.199219 186.578125 150.574219 182.222656 152.867188 C 179.242188 154.472656 141.171875 173.054688 138.191406 174.890625 C 136.125 176.265625 135.4375 179.019531 136.816406 181.082031 C 138.191406 183.148438 140.941406 183.835938 143.007812 182.460938 C 145.527344 180.855469 183.367188 162.503906 186.351562 160.898438 C 190.019531 159.0625 190.707031 158.832031 192.769531 159.519531 C 197.816406 161.125 252.625 176.265625 260.652344 176.265625 C 260.652344 176.265625 260.652344 176.265625 260.882812 176.265625 C 262.714844 176.265625 281.519531 172.597656 294.59375 168.695312 C 298.03125 167.777344 301.929688 169.382812 303.308594 172.597656 C 304.914062 176.265625 303.308594 181.082031 299.179688 182.460938 C 283.355469 188.195312 270.054688 192.324219 267.761719 192.324219 C 264.320312 192.324219 244.371094 190.257812 239.785156 190.257812 C 237.71875 190.257812 210.199219 213.65625 209.511719 214.574219 C 207.449219 217.097656 209.054688 221.226562 212.265625 221.914062 C 214.328125 222.371094 251.25 235.675781 257.210938 237.742188 C 261.109375 239.117188 266.15625 242.789062 264.550781 247.605469 C 263.402344 250.816406 260.421875 252.652344 257.671875 252.421875 C 240.242188 250.128906 195.753906 236.363281 193.457031 236.363281 C 189.789062 236.136719 187.265625 237.972656 186.121094 241.640625 C 185.203125 245.3125 184.054688 264.121094 183.828125 264.578125 C 183.828125 265.726562 182.679688 267.101562 180.386719 268.480469 C 168.691406 275.820312 135.4375 277.65625 122.597656 271.691406 C 117.320312 269.167969 113.421875 277.425781 118.699219 279.949219 C 125.117188 282.929688 135.210938 284.304688 145.527344 284.304688 C 160.664062 284.304688 176.945312 281.324219 185.660156 275.820312 C 191.394531 272.148438 193 268.019531 193.230469 265.039062 C 194.148438 261.367188 194.375 247.835938 194.835938 245.539062 C 197.359375 246.230469 238.40625 258.84375 256.523438 261.367188 C 263.632812 262.285156 270.511719 257.925781 273.265625 250.585938 C 276.707031 240.722656 269.136719 232.234375 260.421875 229.253906 C 254.230469 227.191406 226.023438 216.867188 222.125 215.492188 C 228.546875 209.984375 238.179688 201.726562 241.160156 199.433594 C 245.289062 199.433594 263.863281 201.269531 267.761719 201.5 Z M 267.761719 201.5 " fill-opacity="1" fill-rule="nonzero"/></g><g clip-path="url(#id4)"><path fill="rgb(38.42926%, 88.238525%, 91.369629%)" d="M 24.214844 204.9375 L 97.371094 204.9375 C 99.890625 204.9375 101.957031 202.875 101.957031 200.351562 C 101.957031 197.828125 99.890625 195.765625 97.371094 195.765625 L 24.214844 195.765625 C 21.691406 195.765625 19.628906 197.828125 19.628906 200.351562 C 19.628906 202.875 21.691406 204.9375 24.214844 204.9375 Z M 24.214844 204.9375 " fill-opacity="1" fill-rule="nonzero"/></g><path fill="rgb(38.42926%, 88.238525%, 91.369629%)" d="M 124.660156 177.871094 C 124.660156 175.347656 122.597656 173.285156 120.074219 173.285156 L 47.148438 173.285156 C 44.625 173.285156 42.558594 175.347656 42.558594 177.871094 C 42.558594 180.394531 44.625 182.460938 47.148438 182.460938 L 120.304688 182.460938 C 122.597656 182.230469 124.660156 180.394531 124.660156 177.871094 Z M 124.660156 177.871094 " fill-opacity="1" fill-rule="nonzero"/><path fill="rgb(38.42926%, 88.238525%, 91.369629%)" d="M 42.558594 223.0625 C 42.558594 225.582031 44.625 227.648438 47.148438 227.648438 L 120.304688 227.648438 C 122.824219 227.648438 124.890625 225.582031 124.890625 223.0625 C 124.890625 220.539062 122.824219 218.472656 120.304688 218.472656 L 47.148438 218.472656 C 44.625 218.472656 42.558594 220.539062 42.558594 223.0625 Z M 42.558594 223.0625 " fill-opacity="1" fill-rule="nonzero"/></svg>