<svg xmlns="http://www.w3.org/2000/svg" xmlns:xlink="http://www.w3.org/1999/xlink" width="500" zoomAndPan="magnify" viewBox="0 0 375 374.999991" height="500" preserveAspectRatio="xMidYMid meet" version="1.0"><defs><clipPath id="id1"><path d="M 130.453125 90.992188 L 323.203125 90.992188 L 323.203125 283.742188 L 130.453125 283.742188 Z M 130.453125 90.992188 " clip-rule="nonzero"/></clipPath><clipPath id="id2"><path d="M 54 150 L 130 150 L 130 226.792969 L 54 226.792969 Z M 54 150 " clip-rule="nonzero"/></clipPath></defs><rect x="-37.5" width="450" fill="rgb(100%, 100%, 100%)" y="-37.499999" height="449.999989" fill-opacity="1"/><rect x="-37.5" width="450" fill="rgb(100%, 100%, 100%)" y="-37.499999" height="449.999989" fill-opacity="1"/><rect x="-37.5" width="450" fill="rgb(100%, 100%, 100%)" y="-37.499999" height="449.999989" fill-opacity="1"/><rect x="-37.5" width="450" fill="rgb(100%, 100%, 100%)" y="-37.499999" height="449.999989" fill-opacity="1"/><g clip-path="url(#id1)"><path fill="rgb(38.42926%, 88.238525%, 91.369629%)" d="M 183.160156 283.742188 L 130.453125 253.160156 L 130.453125 147.105469 L 226.796875 90.992188 L 323.203125 145.664062 L 323.203125 253.117188 L 276.894531 283.050781 L 167.875 155.207031 L 250.335938 154.070312 C 259.238281 153.949219 267.628906 157.148438 273.90625 163.085938 C 280.179688 169.023438 283.5 176.890625 283.261719 185.230469 L 283.234375 186.125 C 282.777344 201.996094 269.648438 214.667969 252.691406 215.601562 L 252.160156 207.167969 C 264.390625 206.496094 273.871094 197.347656 274.199219 185.894531 L 274.226562 185 C 274.402344 178.980469 272.003906 173.300781 267.476562 169.019531 C 262.949219 164.734375 256.890625 162.40625 250.46875 162.511719 L 186.386719 163.394531 L 277.511719 270.53125 L 314.164062 248.5 L 314.164062 150.414062 L 226.855469 100.910156 L 139.484375 151.792969 L 139.484375 248.457031 L 174.121094 268.554688 L 174.121094 206.667969 L 183.15625 215.617188 L 183.15625 283.742188 Z M 183.160156 283.742188 " fill-opacity="1" fill-rule="nonzero"/></g><g clip-path="url(#id2)"><path fill="rgb(38.42926%, 88.238525%, 91.369629%)" d="M 128.597656 219.007812 L 107.925781 198.339844 C 116.582031 186.714844 115.671875 170.164062 105.125 159.621094 C 93.542969 148.039062 74.695312 148.039062 63.113281 159.621094 C 51.53125 171.203125 51.53125 190.046875 63.113281 201.632812 C 73.660156 212.175781 90.207031 213.085938 101.832031 204.429688 L 122.503906 225.101562 C 124.1875 226.785156 126.914062 226.785156 128.597656 225.101562 C 130.277344 223.417969 130.277344 220.691406 128.597656 219.007812 Z M 67.175781 197.570312 C 57.832031 188.226562 57.832031 173.023438 67.175781 163.683594 C 76.519531 154.339844 91.722656 154.339844 101.0625 163.683594 C 110.40625 173.023438 110.40625 188.226562 101.0625 197.570312 C 91.722656 206.914062 76.519531 206.910156 67.175781 197.570312 Z M 67.175781 197.570312 " fill-opacity="1" fill-rule="nonzero"/></g><path fill="rgb(38.42926%, 88.238525%, 91.369629%)" d="M 65.652344 182.632812 C 64.679688 182.632812 63.894531 181.84375 63.894531 180.871094 C 63.894531 169.851562 72.859375 160.882812 83.882812 160.882812 C 84.855469 160.882812 85.644531 161.671875 85.644531 162.644531 C 85.644531 163.617188 84.855469 164.402344 83.882812 164.402344 C 74.800781 164.402344 67.414062 171.792969 67.414062 180.871094 C 67.414062 181.84375 66.625 182.632812 65.652344 182.632812 Z M 65.652344 182.632812 " fill-opacity="1" fill-rule="nonzero"/></svg>