<svg xmlns="http://www.w3.org/2000/svg" xmlns:xlink="http://www.w3.org/1999/xlink" width="500" zoomAndPan="magnify" viewBox="0 0 375 374.999991" height="500" preserveAspectRatio="xMidYMid meet" version="1.0"><defs><clipPath id="id1"><path d="M 63.429688 90.992188 L 256.179688 90.992188 L 256.179688 283.742188 L 63.429688 283.742188 Z M 63.429688 90.992188 " clip-rule="nonzero"/></clipPath><clipPath id="id2"><path d="M 252.089844 149 L 335 149 L 335 232.472656 L 252.089844 232.472656 Z M 252.089844 149 " clip-rule="nonzero"/></clipPath></defs><rect x="-37.5" width="450" fill="rgb(100%, 100%, 100%)" y="-37.499999" height="449.999989" fill-opacity="1"/><rect x="-37.5" width="450" fill="rgb(100%, 100%, 100%)" y="-37.499999" height="449.999989" fill-opacity="1"/><rect x="-37.5" width="450" fill="rgb(100%, 100%, 100%)" y="-37.499999" height="449.999989" fill-opacity="1"/><rect x="-37.5" width="450" fill="rgb(100%, 100%, 100%)" y="-37.499999" height="449.999989" fill-opacity="1"/><g clip-path="url(#id1)"><path fill="rgb(38.42926%, 88.238525%, 91.369629%)" d="M 116.136719 283.742188 L 63.429688 253.160156 L 63.429688 147.105469 L 159.777344 90.992188 L 256.179688 145.664062 L 256.179688 253.117188 L 209.875 283.050781 L 100.855469 155.207031 L 183.3125 154.070312 C 192.21875 153.949219 200.609375 157.148438 206.882812 163.085938 C 213.160156 169.023438 216.480469 176.890625 216.238281 185.230469 L 216.214844 186.125 C 215.753906 201.996094 202.625 214.667969 185.667969 215.601562 L 185.136719 207.167969 C 197.371094 206.496094 206.851562 197.347656 207.179688 185.894531 L 207.207031 185 C 207.382812 178.980469 204.980469 173.300781 200.453125 169.019531 C 195.925781 164.734375 189.871094 162.40625 183.445312 162.511719 L 119.367188 163.394531 L 210.492188 270.53125 L 247.144531 248.5 L 247.144531 150.414062 L 159.835938 100.910156 L 72.464844 151.792969 L 72.464844 248.457031 L 107.097656 268.554688 L 107.097656 206.667969 L 116.132812 215.617188 L 116.132812 283.742188 Z M 116.136719 283.742188 " fill-opacity="1" fill-rule="nonzero"/></g><g clip-path="url(#id2)"><path fill="rgb(38.42926%, 88.238525%, 91.369629%)" d="M 328.25 156.492188 C 327.679688 155.921875 327.082031 155.378906 326.457031 154.867188 C 325.835938 154.355469 325.1875 153.875 324.515625 153.425781 C 323.84375 152.980469 323.152344 152.566406 322.441406 152.183594 C 321.730469 151.804688 321 151.460938 320.257812 151.152344 C 319.511719 150.84375 318.75 150.570312 317.980469 150.335938 C 317.207031 150.101562 316.425781 149.90625 315.632812 149.75 C 314.84375 149.59375 314.046875 149.472656 313.242188 149.394531 C 312.4375 149.316406 311.632812 149.277344 310.828125 149.277344 C 310.019531 149.277344 309.214844 149.316406 308.410156 149.394531 C 307.609375 149.472656 306.8125 149.59375 306.019531 149.75 C 305.230469 149.90625 304.445312 150.101562 303.675781 150.335938 C 302.902344 150.570312 302.144531 150.84375 301.398438 151.152344 C 300.652344 151.460938 299.921875 151.804688 299.210938 152.183594 C 298.5 152.566406 297.808594 152.980469 297.136719 153.425781 C 296.46875 153.875 295.820312 154.355469 295.195312 154.867188 C 294.570312 155.378906 293.972656 155.921875 293.402344 156.492188 C 292.859375 157.035156 292.339844 157.605469 291.851562 158.199219 C 291.359375 158.796875 290.898438 159.410156 290.464844 160.046875 C 290.03125 160.6875 289.628906 161.34375 289.257812 162.015625 C 288.882812 162.691406 288.542969 163.382812 288.238281 164.089844 C 287.929688 164.796875 287.65625 165.515625 287.417969 166.25 C 287.179688 166.984375 286.972656 167.726562 286.804688 168.476562 C 286.632812 169.226562 286.5 169.988281 286.398438 170.75 C 286.300781 171.515625 286.238281 172.28125 286.210938 173.054688 C 286.183594 173.824219 286.191406 174.59375 286.238281 175.363281 C 286.28125 176.132812 286.363281 176.898438 286.480469 177.660156 C 286.59375 178.421875 286.746094 179.175781 286.933594 179.925781 C 287.121094 180.671875 287.34375 181.410156 287.601562 182.136719 C 287.855469 182.863281 288.148438 183.578125 288.46875 184.277344 C 288.792969 184.976562 289.148438 185.660156 289.535156 186.324219 C 289.925781 186.992188 290.339844 187.636719 290.789062 188.265625 C 291.238281 188.894531 291.714844 189.496094 292.21875 190.082031 L 283.023438 199.242188 C 282.417969 199.078125 281.808594 199.074219 281.203125 199.226562 C 280.59375 199.378906 280.0625 199.671875 279.609375 200.105469 L 253.347656 226.292969 C 253.007812 226.628906 252.746094 227.019531 252.5625 227.460938 C 252.378906 227.902344 252.285156 228.363281 252.285156 228.84375 C 252.285156 229.320312 252.378906 229.78125 252.5625 230.226562 C 252.746094 230.667969 253.007812 231.054688 253.347656 231.394531 C 254.054688 232.09375 254.90625 232.441406 255.898438 232.433594 C 256.894531 232.441406 257.742188 232.09375 258.449219 231.394531 L 284.710938 205.132812 C 285.175781 204.660156 285.484375 204.101562 285.636719 203.457031 C 285.792969 202.8125 285.769531 202.171875 285.574219 201.539062 L 294.660156 192.523438 C 295.257812 193.019531 295.878906 193.484375 296.519531 193.921875 C 297.160156 194.359375 297.820312 194.761719 298.5 195.136719 C 299.179688 195.511719 299.875 195.851562 300.589844 196.160156 C 301.300781 196.46875 302.023438 196.742188 302.761719 196.984375 C 303.5 197.222656 304.25 197.429688 305.007812 197.597656 C 305.761719 197.765625 306.527344 197.898438 307.296875 197.996094 C 308.066406 198.09375 308.839844 198.152344 309.613281 198.175781 C 310.390625 198.199219 311.164062 198.1875 311.9375 198.136719 C 312.714844 198.089844 313.484375 198.003906 314.25 197.878906 C 315.015625 197.757812 315.773438 197.601562 316.527344 197.40625 C 317.277344 197.210938 318.019531 196.980469 318.746094 196.71875 C 319.476562 196.453125 320.191406 196.15625 320.894531 195.824219 C 321.59375 195.492188 322.277344 195.128906 322.945312 194.730469 C 323.613281 194.335938 324.257812 193.90625 324.886719 193.449219 C 325.511719 192.992188 326.117188 192.503906 326.695312 191.992188 C 327.277344 191.476562 327.832031 190.933594 328.359375 190.367188 C 328.890625 189.800781 329.390625 189.210938 329.867188 188.59375 C 330.339844 187.980469 330.78125 187.34375 331.195312 186.6875 C 331.609375 186.03125 331.988281 185.355469 332.339844 184.664062 C 332.6875 183.96875 333.003906 183.261719 333.289062 182.539062 C 333.570312 181.816406 333.816406 181.082031 334.03125 180.335938 C 334.242188 179.589844 334.421875 178.835938 334.5625 178.074219 C 334.703125 177.3125 334.808594 176.542969 334.878906 175.769531 C 334.949219 174.996094 334.980469 174.222656 334.976562 173.445312 C 334.972656 172.671875 334.929688 171.898438 334.855469 171.125 C 334.777344 170.351562 334.664062 169.585938 334.511719 168.824219 C 334.363281 168.0625 334.175781 167.3125 333.957031 166.566406 C 333.734375 165.824219 333.480469 165.09375 333.1875 164.371094 C 332.898438 163.652344 332.574219 162.949219 332.21875 162.261719 C 331.863281 161.570312 331.472656 160.902344 331.050781 160.25 C 330.632812 159.597656 330.183594 158.964844 329.703125 158.355469 C 329.222656 157.746094 328.714844 157.160156 328.179688 156.597656 Z M 325.734375 188.824219 C 325.25 189.3125 324.738281 189.773438 324.203125 190.210938 C 323.671875 190.648438 323.117188 191.058594 322.546875 191.441406 C 321.972656 191.824219 321.382812 192.175781 320.773438 192.5 C 320.164062 192.828125 319.542969 193.121094 318.90625 193.382812 C 318.269531 193.648438 317.621094 193.878906 316.960938 194.078125 C 316.300781 194.28125 315.632812 194.445312 314.957031 194.582031 C 314.28125 194.714844 313.597656 194.816406 312.914062 194.882812 C 312.226562 194.949219 311.539062 194.984375 310.851562 194.984375 C 310.160156 194.984375 309.472656 194.949219 308.789062 194.882812 C 308.101562 194.816406 307.421875 194.714844 306.742188 194.578125 C 306.066406 194.445312 305.398438 194.277344 304.742188 194.078125 C 304.082031 193.875 303.433594 193.644531 302.796875 193.378906 C 302.160156 193.117188 301.535156 192.820312 300.929688 192.496094 C 300.320312 192.171875 299.730469 191.816406 299.15625 191.433594 C 298.582031 191.050781 298.03125 190.640625 297.496094 190.203125 C 296.964844 189.765625 296.453125 189.304688 295.96875 188.816406 C 295.480469 188.328125 295.019531 187.820312 294.582031 187.285156 C 294.144531 186.753906 293.734375 186.199219 293.351562 185.625 C 292.96875 185.054688 292.613281 184.464844 292.289062 183.855469 C 291.964844 183.246094 291.667969 182.625 291.40625 181.988281 C 291.140625 181.351562 290.910156 180.703125 290.710938 180.042969 C 290.507812 179.382812 290.34375 178.714844 290.207031 178.039062 C 290.074219 177.363281 289.972656 176.683594 289.90625 175.996094 C 289.835938 175.308594 289.804688 174.621094 289.804688 173.933594 C 289.804688 173.242188 289.835938 172.554688 289.90625 171.871094 C 289.972656 171.183594 290.074219 170.503906 290.207031 169.828125 C 290.34375 169.148438 290.507812 168.480469 290.710938 167.824219 C 290.910156 167.164062 291.140625 166.515625 291.40625 165.878906 C 291.667969 165.242188 291.964844 164.617188 292.289062 164.011719 C 292.613281 163.402344 292.96875 162.8125 293.351562 162.238281 C 293.734375 161.664062 294.144531 161.113281 294.582031 160.578125 C 295.019531 160.046875 295.480469 159.535156 295.96875 159.046875 C 296.453125 158.5625 296.964844 158.097656 297.496094 157.660156 C 298.03125 157.222656 298.582031 156.8125 299.15625 156.429688 C 299.730469 156.046875 300.320312 155.691406 300.929688 155.367188 C 301.535156 155.042969 302.160156 154.75 302.796875 154.484375 C 303.433594 154.222656 304.082031 153.988281 304.742188 153.789062 C 305.398438 153.589844 306.066406 153.421875 306.742188 153.285156 C 307.421875 153.152344 308.101562 153.050781 308.789062 152.984375 C 309.472656 152.914062 310.160156 152.882812 310.851562 152.882812 C 311.539062 152.878906 312.226562 152.914062 312.914062 152.980469 C 313.597656 153.050781 314.28125 153.148438 314.957031 153.285156 C 315.632812 153.417969 316.300781 153.585938 316.960938 153.785156 C 317.621094 153.984375 318.269531 154.21875 318.90625 154.480469 C 319.542969 154.746094 320.164062 155.039062 320.773438 155.363281 C 321.382812 155.6875 321.972656 156.042969 322.546875 156.425781 C 323.117188 156.808594 323.671875 157.21875 324.203125 157.65625 C 324.738281 158.09375 325.25 158.554688 325.734375 159.042969 C 326.226562 159.527344 326.691406 160.035156 327.132812 160.566406 C 327.574219 161.097656 327.988281 161.648438 328.371094 162.21875 C 328.757812 162.792969 329.113281 163.382812 329.441406 163.988281 C 329.769531 164.597656 330.066406 165.21875 330.332031 165.855469 C 330.597656 166.492188 330.832031 167.140625 331.035156 167.800781 C 331.238281 168.460938 331.40625 169.128906 331.539062 169.804688 C 331.675781 170.480469 331.777344 171.164062 331.847656 171.851562 C 331.914062 172.535156 331.949219 173.226562 331.949219 173.914062 C 331.949219 174.605469 331.914062 175.292969 331.847656 175.980469 C 331.777344 176.667969 331.675781 177.347656 331.539062 178.023438 C 331.40625 178.699219 331.238281 179.371094 331.035156 180.027344 C 330.832031 180.6875 330.597656 181.335938 330.332031 181.972656 C 330.066406 182.609375 329.769531 183.234375 329.441406 183.839844 C 329.113281 184.445312 328.757812 185.035156 328.371094 185.609375 C 327.988281 186.179688 327.574219 186.730469 327.132812 187.261719 C 326.691406 187.792969 326.226562 188.300781 325.734375 188.789062 Z M 325.734375 188.824219 " fill-opacity="1" fill-rule="nonzero"/></g><path fill="rgb(38.42926%, 88.238525%, 91.369629%)" d="M 323.402344 161.339844 C 323.230469 161.175781 323.035156 161.046875 322.8125 160.957031 C 322.59375 160.871094 322.363281 160.824219 322.125 160.824219 C 321.886719 160.824219 321.65625 160.871094 321.4375 160.957031 C 321.214844 161.046875 321.019531 161.175781 320.851562 161.339844 C 320.679688 161.511719 320.550781 161.703125 320.457031 161.925781 C 320.363281 162.148438 320.320312 162.378906 320.320312 162.617188 C 320.320312 162.855469 320.363281 163.085938 320.457031 163.308594 C 320.550781 163.527344 320.679688 163.722656 320.851562 163.890625 C 321.464844 164.507812 322.019531 165.171875 322.511719 165.886719 C 323.003906 166.605469 323.429688 167.359375 323.785156 168.152344 C 324.144531 168.945312 324.425781 169.761719 324.632812 170.609375 C 324.839844 171.453125 324.972656 172.308594 325.023438 173.175781 C 325.074219 174.042969 325.050781 174.910156 324.945312 175.773438 C 324.839844 176.636719 324.660156 177.484375 324.402344 178.3125 C 324.144531 179.144531 323.8125 179.941406 323.410156 180.714844 C 323.003906 181.484375 322.535156 182.210938 322 182.894531 C 321.847656 183.078125 321.738281 183.285156 321.671875 183.515625 C 321.601562 183.742188 321.582031 183.976562 321.609375 184.214844 C 321.636719 184.449219 321.710938 184.671875 321.828125 184.882812 C 321.945312 185.089844 322.097656 185.265625 322.285156 185.410156 C 322.605469 185.695312 322.976562 185.839844 323.402344 185.839844 C 323.972656 185.832031 324.441406 185.605469 324.800781 185.160156 C 325.476562 184.304688 326.070312 183.394531 326.578125 182.429688 C 327.085938 181.464844 327.503906 180.460938 327.832031 179.421875 C 328.160156 178.382812 328.390625 177.320312 328.523438 176.238281 C 328.65625 175.15625 328.691406 174.070312 328.628906 172.984375 C 328.5625 171.894531 328.402344 170.820312 328.140625 169.761719 C 327.882812 168.703125 327.527344 167.675781 327.082031 166.683594 C 326.636719 165.6875 326.105469 164.742188 325.484375 163.84375 C 324.867188 162.945312 324.171875 162.113281 323.402344 161.339844 Z M 323.402344 161.339844 " fill-opacity="1" fill-rule="nonzero"/></svg>